<svg width="188" height="160" viewBox="0 0 188 160" fill="none" xmlns="http://www.w3.org/2000/svg">
<g filter="url(#filter0_d_102_5)">
<path d="M31.1973 104.124C31.1973 103.497 31.243 102.907 31.3342 102.355C31.4255 101.788 31.5509 101.303 31.7106 100.901C31.8703 100.483 32.0557 100.155 32.2667 99.9159C32.4835 99.6622 32.7116 99.5354 32.9512 99.5354H39.6072C39.8467 99.5354 40.072 99.6622 40.2831 99.9159C40.4998 100.155 40.688 100.483 40.8477 100.901C41.0074 101.303 41.1329 101.788 41.2241 102.355C41.3154 102.907 41.361 103.497 41.361 104.124V108.264H39.6072V104.124H32.9512V127.042H39.6072V119.253H36.2792V114.665H41.361V127.042C41.361 127.669 41.3154 128.266 41.2241 128.833C41.1329 129.385 41.0074 129.87 40.8477 130.287C40.688 130.705 40.4998 131.033 40.2831 131.272C40.072 131.511 39.8467 131.63 39.6072 131.63H32.9512C32.7116 131.63 32.4835 131.511 32.2667 131.272C32.0557 131.033 31.8703 130.705 31.7106 130.287C31.5509 129.87 31.4255 129.385 31.3342 128.833C31.243 128.266 31.1973 127.669 31.1973 127.042V104.124Z" fill="#C50000"/>
<path d="M46.0151 112.203V131.63H44.3383V107.794H46.0151V112.002C46.0265 111.42 46.0779 110.875 46.1691 110.368C46.2604 109.846 46.3801 109.398 46.5284 109.025C46.6824 108.637 46.8592 108.339 47.0589 108.13C47.2585 107.906 47.4724 107.794 47.7005 107.794H49.4886C49.7224 107.794 49.9392 107.913 50.1388 108.152C50.3441 108.376 50.5238 108.689 50.6778 109.092C50.8318 109.48 50.9515 109.943 51.0371 110.48C51.1283 111.017 51.174 111.591 51.174 112.203V116.232H49.4886V112.203H46.0151Z" fill="black"/>
<path d="M53.27 121.223C53.27 120.611 53.3128 120.044 53.3983 119.522C53.4896 118.985 53.6094 118.515 53.7577 118.112C53.9117 117.709 54.0913 117.396 54.2967 117.172C54.502 116.933 54.7187 116.814 54.9469 116.814H59.293V112.203H53.7919V107.794H59.293C59.5268 107.794 59.7464 107.913 59.9517 108.152C60.157 108.376 60.3339 108.689 60.4821 109.092C60.6361 109.48 60.7559 109.943 60.8415 110.48C60.9327 111.017 60.9784 111.591 60.9784 112.203V131.63H59.293V127.602C59.2758 128.154 59.2188 128.676 59.1219 129.168C59.0249 129.661 58.8994 130.093 58.7454 130.466C58.5971 130.824 58.426 131.108 58.2321 131.317C58.0382 131.526 57.8328 131.63 57.6161 131.63H54.9469C54.7187 131.63 54.502 131.518 54.2967 131.294C54.0913 131.056 53.9117 130.742 53.7577 130.354C53.6094 129.952 53.4896 129.482 53.3983 128.944C53.3128 128.407 53.27 127.833 53.27 127.221V121.223ZM54.9469 127.221H59.293V121.223H54.9469V127.221Z" fill="black"/>
<path d="M63.793 112.203C63.793 111.591 63.8358 111.017 63.9214 110.48C64.0126 109.943 64.1324 109.48 64.2807 109.092C64.4347 108.689 64.6144 108.376 64.8197 108.152C65.025 107.913 65.2417 107.794 65.4699 107.794H70.1668V98.6177H71.8521V131.63H70.1668V127.602C70.1496 128.154 70.0926 128.676 69.9956 129.168C69.8987 129.661 69.7732 130.093 69.6192 130.466C69.4709 130.824 69.2998 131.108 69.1059 131.317C68.912 131.526 68.7066 131.63 68.4899 131.63H65.4699C65.2417 131.63 65.025 131.518 64.8197 131.294C64.6144 131.056 64.4347 130.742 64.2807 130.354C64.1324 129.952 64.0126 129.482 63.9214 128.944C63.8358 128.407 63.793 127.833 63.793 127.221V112.203ZM65.4699 127.221H70.1668V112.203H65.4699V127.221Z" fill="black"/>
<path d="M82.3666 121.961H76.3351V127.221H82.3666V131.63H76.3351C76.107 131.63 75.8903 131.518 75.6849 131.294C75.4796 131.056 75.2999 130.742 75.1459 130.354C74.9976 129.952 74.8779 129.482 74.7866 128.944C74.7011 128.407 74.6583 127.833 74.6583 127.221V112.203C74.6583 111.591 74.7011 111.017 74.7866 110.48C74.8779 109.943 74.9976 109.48 75.1459 109.092C75.2999 108.689 75.4796 108.376 75.6849 108.152C75.8903 107.913 76.107 107.794 76.3351 107.794H80.6812C80.9151 107.794 81.1347 107.913 81.34 108.152C81.5453 108.376 81.7221 108.689 81.8704 109.092C82.0244 109.48 82.1442 109.943 82.2297 110.48C82.321 111.017 82.3666 111.591 82.3666 112.203V121.961ZM76.3351 112.203V117.552H80.6812V112.203H76.3351Z" fill="black"/>
</g>
<g filter="url(#filter1_d_102_5)">
<path d="M105.475 99.5354H115.374V104.124H111.309V131.63H109.54V104.124H105.475V99.5354Z" fill="#C50000"/>
<path d="M117.945 112.203V131.63H116.254V107.794H117.945V112.002C117.957 111.42 118.008 110.875 118.1 110.368C118.193 109.846 118.313 109.398 118.463 109.025C118.618 108.637 118.797 108.339 118.998 108.13C119.199 107.906 119.415 107.794 119.645 107.794H121.449C121.685 107.794 121.903 107.913 122.105 108.152C122.312 108.376 122.493 108.689 122.648 109.092C122.804 109.48 122.924 109.943 123.011 110.48C123.103 111.017 123.149 111.591 123.149 112.203V116.232H121.449V112.203H117.945Z" fill="black"/>
<path d="M125.263 121.223C125.263 120.611 125.306 120.044 125.392 119.522C125.485 118.985 125.605 118.515 125.755 118.112C125.91 117.709 126.091 117.396 126.299 117.172C126.506 116.933 126.724 116.814 126.954 116.814H131.338V112.203H125.789V107.794H131.338C131.574 107.794 131.796 107.913 132.003 108.152C132.21 108.376 132.388 108.689 132.538 109.092C132.693 109.48 132.814 109.943 132.9 110.48C132.992 111.017 133.038 111.591 133.038 112.203V131.63H131.338V127.602C131.321 128.154 131.264 128.676 131.166 129.168C131.068 129.661 130.941 130.093 130.786 130.466C130.636 130.824 130.464 131.108 130.268 131.317C130.073 131.526 129.866 131.63 129.647 131.63H126.954C126.724 131.63 126.506 131.518 126.299 131.294C126.091 131.056 125.91 130.742 125.755 130.354C125.605 129.952 125.485 129.482 125.392 128.944C125.306 128.407 125.263 127.833 125.263 127.221V121.223ZM126.954 127.221H131.338V121.223H126.954V127.221Z" fill="black"/>
<path d="M137.569 112.203V127.221H141.953V123.192H143.653V127.221C143.653 127.833 143.607 128.407 143.515 128.944C143.428 129.482 143.308 129.952 143.152 130.354C143.003 130.742 142.824 131.056 142.617 131.294C142.41 131.518 142.189 131.63 141.953 131.63H137.569C137.339 131.63 137.12 131.518 136.913 131.294C136.706 131.056 136.525 130.742 136.369 130.354C136.22 129.952 136.099 129.482 136.007 128.944C135.921 128.407 135.877 127.833 135.877 127.221V112.203C135.877 111.591 135.921 111.017 136.007 110.48C136.099 109.943 136.22 109.48 136.369 109.092C136.525 108.689 136.706 108.376 136.913 108.152C137.12 107.913 137.339 107.794 137.569 107.794H141.953C142.189 107.794 142.41 107.913 142.617 108.152C142.824 108.376 143.003 108.689 143.152 109.092C143.308 109.48 143.428 109.943 143.515 110.48C143.607 111.017 143.653 111.591 143.653 112.203V116.232H141.953V112.203H137.569Z" fill="black"/>
<path d="M152.567 131.63L148.183 121.447V131.63H146.492V98.6177H148.183V117.194L152.213 107.794H154.604L149.668 119.298L154.958 131.63H152.567Z" fill="black"/>
<path d="M163.967 121.961H157.883V127.221H163.967V131.63H157.883C157.653 131.63 157.434 131.518 157.227 131.294C157.02 131.056 156.839 130.742 156.683 130.354C156.534 129.952 156.413 129.482 156.321 128.944C156.235 128.407 156.192 127.833 156.192 127.221V112.203C156.192 111.591 156.235 111.017 156.321 110.48C156.413 109.943 156.534 109.48 156.683 109.092C156.839 108.689 157.02 108.376 157.227 108.152C157.434 107.913 157.653 107.794 157.883 107.794H162.267C162.503 107.794 162.724 107.913 162.931 108.152C163.138 108.376 163.317 108.689 163.466 109.092C163.622 109.48 163.742 109.943 163.829 110.48C163.921 111.017 163.967 111.591 163.967 112.203V121.961ZM157.883 112.203V117.552H162.267V112.203H157.883Z" fill="black"/>
<path d="M168.497 112.203V131.63H166.806V107.794H168.497V112.002C168.509 111.42 168.561 110.875 168.653 110.368C168.745 109.846 168.866 109.398 169.015 109.025C169.171 108.637 169.349 108.339 169.55 108.13C169.752 107.906 169.967 107.794 170.197 107.794H172.001C172.237 107.794 172.456 107.913 172.657 108.152C172.864 108.376 173.045 108.689 173.201 109.092C173.356 109.48 173.477 109.943 173.563 110.48C173.655 111.017 173.701 111.591 173.701 112.203V116.232H172.001V112.203H168.497Z" fill="black"/>
</g>
<path d="M38.3028 64.1673V56.8881H40.1548C40.749 56.8881 41.2178 56.9475 41.5611 57.0663C41.9111 57.1852 42.1686 57.337 42.3336 57.5219C42.5053 57.7068 42.6175 57.9016 42.6703 58.1062C42.7232 58.3109 42.7496 58.5024 42.7496 58.6806C42.7496 58.8721 42.7199 59.0735 42.6604 59.2848C42.6076 59.4895 42.5152 59.6809 42.3831 59.8592C42.2511 60.0309 42.0695 60.1695 41.8384 60.2751C42.3336 60.4006 42.6835 60.6185 42.8882 60.9288C43.0995 61.2325 43.2051 61.5725 43.2051 61.9489C43.2051 62.2064 43.1754 62.4672 43.116 62.7313C43.0566 62.9954 42.9311 63.2364 42.7397 63.4542C42.5548 63.6655 42.2742 63.8372 41.8979 63.9692C41.5215 64.1013 41.0164 64.1673 40.3826 64.1673H38.3028ZM39.3922 59.978H40.3331C40.6764 59.978 40.9405 59.9219 41.1254 59.8097C41.3102 59.6908 41.439 59.539 41.5116 59.3541C41.5908 59.1692 41.6305 58.9745 41.6305 58.7698C41.6305 58.5981 41.5908 58.443 41.5116 58.3043C41.439 58.1591 41.3036 58.0435 41.1056 57.9577C40.9141 57.8718 40.6401 57.8289 40.2835 57.8289H39.3922V59.978ZM39.3922 63.2364H40.5311C40.8679 63.2364 41.1353 63.1968 41.3333 63.1175C41.538 63.0383 41.6932 62.936 41.7988 62.8105C41.9045 62.6851 41.9738 62.5497 42.0068 62.4045C42.0398 62.2526 42.0563 62.104 42.0563 61.9588C42.0563 61.6155 41.9408 61.3481 41.7097 61.1566C41.4786 60.9585 41.1155 60.8595 40.6203 60.8595H39.3922V63.2364Z" fill="#FF0000"/>
<path d="M45.7954 63.2562V61.4339H43.9236V60.5227H45.7954V58.7005H46.7561V60.5227H48.6378V61.4339H46.7561V63.2562H45.7954Z" fill="#FF0000"/>
<path d="M48.9987 65.0785L51.1379 55.9769H52.0985L49.9593 65.0785H48.9987Z" fill="#FF0000"/>
<path d="M52.7596 62.1569V61.2061H56.1566V62.1569H52.7596Z" fill="#FF0000"/>
<path d="M54.2805 82.3933C53.6994 82.3933 53.1811 82.2942 52.7256 82.0961C52.2766 81.8981 51.8937 81.6274 51.5767 81.284C51.2664 80.9341 51.0287 80.538 50.8637 80.0956C50.7052 79.6466 50.626 79.1712 50.626 78.6695C50.626 78.1214 50.7151 77.6197 50.8934 77.1641C51.0782 76.7085 51.3357 76.3157 51.6659 75.9855C51.996 75.6488 52.3888 75.388 52.8444 75.2031C53.3 75.0183 53.8018 74.9258 54.3498 74.9258C54.7063 74.9258 55.0232 74.9622 55.3005 75.0348C55.5778 75.1074 55.8056 75.1899 55.9839 75.2824C56.1622 75.3682 56.2744 75.4375 56.3206 75.4904L55.8353 76.4807C55.6571 76.3223 55.4359 76.1935 55.1718 76.0945C54.9143 75.9954 54.6106 75.9459 54.2606 75.9459C53.8051 75.9459 53.3924 76.0582 53.0227 76.2827C52.6595 76.5071 52.369 76.8241 52.1512 77.2334C51.9399 77.6428 51.8342 78.1281 51.8342 78.6893C51.8342 79.1844 51.9267 79.6367 52.1115 80.0461C52.2964 80.4488 52.5671 80.7723 52.9236 81.0166C53.2868 81.2609 53.7258 81.3831 54.2408 81.3831C54.5247 81.3831 54.8021 81.3468 55.0728 81.2741C55.3501 81.1949 55.634 81.0662 55.9245 80.8879L56.2513 81.8287C56.1655 81.908 56.0202 81.9938 55.8155 82.0862C55.6109 82.1721 55.3732 82.2447 55.1025 82.3041C54.8384 82.3635 54.5644 82.3933 54.2805 82.3933Z" fill="#FF0000"/>
<path d="M57.8849 81.4128V79.5905H56.0131V78.6794H57.8849V76.8571H58.8456V78.6794H60.7273V79.5905H58.8456V81.4128H57.8849Z" fill="#FF0000"/>
<path d="M61.0882 83.2351L63.2274 74.1335H64.1881L62.0489 83.2351H61.0882Z" fill="#FF0000"/>
<path d="M64.8491 80.3135V79.3627H68.2461V80.3135H64.8491Z" fill="#FF0000"/>
<path d="M53.5799 38.7214H53.6888L57.1947 46.0105H55.9171L55.2932 44.5844H51.9557L51.3317 46.0105H50.0938L53.5799 38.7214ZM53.6294 40.8309L53.1936 41.8212L52.4013 43.5841H54.8574L54.0751 41.8311L53.6492 40.8309H53.6294Z" fill="#FF0000"/>
<path d="M58.9332 45.0994V43.2771H57.0614V42.3659H58.9332V40.5437H59.8939V42.3659H61.7756V43.2771H59.8939V45.0994H58.9332Z" fill="#FF0000"/>
<path d="M62.1365 46.9217L64.2757 37.8201H65.2363L63.0971 46.9217H62.1365Z" fill="#FF0000"/>
<path d="M65.8974 44.0001V43.0493H69.2944V44.0001H65.8974Z" fill="#FF0000"/>
<g filter="url(#filter2_d_102_5)">
<path d="M75.488 88.3738C71.5331 90.6572 67.489 92.0708 63.3558 92.6147C59.2702 93.1311 55.3108 92.8757 51.4776 91.8486C47.6646 90.7464 44.1282 88.9127 40.8683 86.3475C37.6285 83.7072 34.8807 80.4334 32.6248 76.5261C30.3965 72.6665 29.0141 68.7315 28.4775 64.7211C27.941 60.7106 28.2001 56.8127 29.2547 53.0272C30.3093 49.2417 32.1329 45.7428 34.7256 42.5305C37.2907 39.2706 40.5508 36.499 44.5057 34.2156C47.6029 32.4274 50.4363 31.1728 53.0059 30.4516C55.5957 29.6552 57.7503 29.2054 59.4696 29.1022C61.2091 28.9239 62.3795 28.9153 62.9807 29.0764L63.7148 37.6106C63.2162 37.5173 62.3015 37.4736 60.9708 37.4795C59.64 37.4854 57.9318 37.7729 55.846 38.3418C53.8078 38.8831 51.3831 39.9654 48.5718 41.5885C44.6646 43.8444 41.8243 46.6278 40.051 49.9387C38.2502 53.2021 37.4365 56.6896 37.61 60.4014C37.7835 64.1132 38.8744 67.7083 40.8827 71.1867C43.221 75.2369 46.1081 78.3667 49.5439 80.5763C52.9521 82.7381 56.5709 83.889 60.4001 84.0289C64.2017 84.1212 67.8894 83.1357 71.4631 81.0724C73.5121 79.8894 75.4335 78.4307 77.2275 76.6961C79.0691 74.934 80.3708 73.0071 81.1327 70.9153L75.2729 60.766L64.4804 66.9971L60.23 59.6353L78.9562 48.8237L90.8407 69.4083C90.4237 72.3174 88.9638 75.5109 86.4611 78.989C83.9583 82.467 80.3006 85.5952 75.488 88.3738Z" fill="black"/>
<circle cx="60.5754" cy="60.5754" r="29.4622" fill="white" fill-opacity="0.2" stroke="black" stroke-width="6"/>
<path d="M99.287 135.942L73.0008 90.4133L59.5637 98.1712L55.5197 91.1668L90.4705 70.9879L94.5145 77.9924L80.9344 85.8328L107.221 131.362L99.287 135.942Z" fill="black"/>
</g>
<line x1="56.0014" y1="92.528" x2="91.2146" y2="71.8952" stroke="white" stroke-width="2"/>
<defs>
<filter id="filter0_d_102_5" x="31.1973" y="98.6177" width="65.1693" height="46.0125" filterUnits="userSpaceOnUse" color-interpolation-filters="sRGB">
<feFlood flood-opacity="0" result="BackgroundImageFix"/>
<feColorMatrix in="SourceAlpha" type="matrix" values="0 0 0 0 0 0 0 0 0 0 0 0 0 0 0 0 0 0 127 0" result="hardAlpha"/>
<feOffset dx="9" dy="8"/>
<feGaussianBlur stdDeviation="2.5"/>
<feComposite in2="hardAlpha" operator="out"/>
<feColorMatrix type="matrix" values="0 0 0 0 0 0 0 0 0 0 0 0 0 0 0 0 0 0 0.25 0"/>
<feBlend mode="normal" in2="BackgroundImageFix" result="effect1_dropShadow_102_5"/>
<feBlend mode="normal" in="SourceGraphic" in2="effect1_dropShadow_102_5" result="shape"/>
</filter>
<filter id="filter1_d_102_5" x="105.475" y="98.6177" width="82.2257" height="46.0125" filterUnits="userSpaceOnUse" color-interpolation-filters="sRGB">
<feFlood flood-opacity="0" result="BackgroundImageFix"/>
<feColorMatrix in="SourceAlpha" type="matrix" values="0 0 0 0 0 0 0 0 0 0 0 0 0 0 0 0 0 0 127 0" result="hardAlpha"/>
<feOffset dx="9" dy="8"/>
<feGaussianBlur stdDeviation="2.5"/>
<feComposite in2="hardAlpha" operator="out"/>
<feColorMatrix type="matrix" values="0 0 0 0 0 0 0 0 0 0 0 0 0 0 0 0 0 0 0.25 0"/>
<feBlend mode="normal" in2="BackgroundImageFix" result="effect1_dropShadow_102_5"/>
<feBlend mode="normal" in="SourceGraphic" in2="effect1_dropShadow_102_5" result="shape"/>
</filter>
<filter id="filter2_d_102_5" x="28.1132" y="28.1132" width="93.1074" height="120.829" filterUnits="userSpaceOnUse" color-interpolation-filters="sRGB">
<feFlood flood-opacity="0" result="BackgroundImageFix"/>
<feColorMatrix in="SourceAlpha" type="matrix" values="0 0 0 0 0 0 0 0 0 0 0 0 0 0 0 0 0 0 127 0" result="hardAlpha"/>
<feOffset dx="9" dy="8"/>
<feGaussianBlur stdDeviation="2.5"/>
<feComposite in2="hardAlpha" operator="out"/>
<feColorMatrix type="matrix" values="0 0 0 0 0 0 0 0 0 0 0 0 0 0 0 0 0 0 0.25 0"/>
<feBlend mode="normal" in2="BackgroundImageFix" result="effect1_dropShadow_102_5"/>
<feBlend mode="normal" in="SourceGraphic" in2="effect1_dropShadow_102_5" result="shape"/>
</filter>
</defs>
</svg>
